<?xml version="1.0" encoding="UTF-8"?>
<svg version="1.1" xmlns="http://www.w3.org/2000/svg" width="1920" height="1080">
<path d="M0 0 C633.6 0 1267.2 0 1920 0 C1920 356.4 1920 712.8 1920 1080 C1286.4 1080 652.8 1080 0 1080 C0 723.6 0 367.2 0 0 Z " fill="#FEFEFE" transform="translate(0,0)"/>
<path d="M0 0 C31.02 0 62.04 0 94 0 C94 31.02 94 62.04 94 94 C62.98 94 31.96 94 0 94 C0 62.98 0 31.96 0 0 Z " fill="#FFFFFF" transform="translate(193,481)"/>
<path d="M0 0 C31.02 0 62.04 0 94 0 C94 31.02 94 62.04 94 94 C62.98 94 31.96 94 0 94 C0 62.98 0 31.96 0 0 Z " fill="#FFFFFF" transform="translate(769,385)"/>
<path d="M0 0 C31.02 0 62.04 0 94 0 C94 31.02 94 62.04 94 94 C62.98 94 31.96 94 0 94 C0 62.98 0 31.96 0 0 Z " fill="#FFFFFF" transform="translate(673,385)"/>
<path d="M0 0 C31.02 0 62.04 0 94 0 C94 31.02 94 62.04 94 94 C62.98 94 31.96 94 0 94 C0 62.98 0 31.96 0 0 Z " fill="#FFFFFF" transform="translate(577,385)"/>
<path d="M0 0 C31.02 0 62.04 0 94 0 C94 31.02 94 62.04 94 94 C62.98 94 31.96 94 0 94 C0 62.98 0 31.96 0 0 Z " fill="#FFFFFF" transform="translate(1153,289)"/>
<path d="M0 0 C31.02 0 62.04 0 94 0 C94 31.02 94 62.04 94 94 C62.98 94 31.96 94 0 94 C0 62.98 0 31.96 0 0 Z " fill="#FFFFFF" transform="translate(1057,289)"/>
<path d="M0 0 C31.02 0 62.04 0 94 0 C94 31.02 94 62.04 94 94 C62.98 94 31.96 94 0 94 C0 62.98 0 31.96 0 0 Z " fill="#FFFFFF" transform="translate(961,289)"/>
<path d="M0 0 C31.02 0 62.04 0 94 0 C94 31.02 94 62.04 94 94 C62.98 94 31.96 94 0 94 C0 62.98 0 31.96 0 0 Z " fill="#FFFFFF" transform="translate(865,289)"/>
<path d="M0 0 C31.02 0 62.04 0 94 0 C94 31.02 94 62.04 94 94 C62.98 94 31.96 94 0 94 C0 62.98 0 31.96 0 0 Z " fill="#FFFFFF" transform="translate(769,289)"/>
<path d="M0 0 C31.02 0 62.04 0 94 0 C94 31.02 94 62.04 94 94 C62.98 94 31.96 94 0 94 C0 62.98 0 31.96 0 0 Z " fill="#FFFFFF" transform="translate(673,289)"/>
<path d="M0 0 C31.02 0 62.04 0 94 0 C94 31.02 94 62.04 94 94 C62.98 94 31.96 94 0 94 C0 62.98 0 31.96 0 0 Z " fill="#FFFFFF" transform="translate(289,289)"/>
<path d="M0 0 C31.02 0 62.04 0 94 0 C94 31.02 94 62.04 94 94 C62.98 94 31.96 94 0 94 C0 62.98 0 31.96 0 0 Z " fill="#FFFFFF" transform="translate(577,193)"/>
<path d="M0 0 C31.02 0 62.04 0 94 0 C94 31.02 94 62.04 94 94 C62.98 94 31.96 94 0 94 C0 62.98 0 31.96 0 0 Z " fill="#FFFFFF" transform="translate(481,193)"/>
<path d="M0 0 C31.02 0 62.04 0 94 0 C94 31.02 94 62.04 94 94 C62.98 94 31.96 94 0 94 C0 62.98 0 31.96 0 0 Z " fill="#FFFFFF" transform="translate(961,97)"/>
<path d="M0 0 C31.02 0 62.04 0 94 0 C94 31.02 94 62.04 94 94 C62.98 94 31.96 94 0 94 C0 62.98 0 31.96 0 0 Z " fill="#FFFFFF" transform="translate(865,97)"/>
<path d="M0 0 C127.38 0 254.76 0 386 0 C386 95.7 386 191.4 386 290 C226.94 290 67.88 290 -96 290 C-96 225.98 -96 161.96 -96 96 C-64.32 96 -32.64 96 0 96 C0 64.32 0 32.64 0 0 Z M2 2 C2 33.02 2 64.04 2 96 C33.02 96 64.04 96 96 96 C96 64.98 96 33.96 96 2 C64.98 2 33.96 2 2 2 Z M98 2 C98 33.02 98 64.04 98 96 C129.02 96 160.04 96 192 96 C192 64.98 192 33.96 192 2 C160.98 2 129.96 2 98 2 Z M194 2 C194 33.02 194 64.04 194 96 C225.02 96 256.04 96 288 96 C288 64.98 288 33.96 288 2 C256.98 2 225.96 2 194 2 Z M290 2 C290 33.02 290 64.04 290 96 C321.02 96 352.04 96 384 96 C384 64.98 384 33.96 384 2 C352.98 2 321.96 2 290 2 Z M-94 98 C-94 129.02 -94 160.04 -94 192 C-62.98 192 -31.96 192 0 192 C0 160.98 0 129.96 0 98 C-31.02 98 -62.04 98 -94 98 Z M2 98 C2 129.02 2 160.04 2 192 C33.02 192 64.04 192 96 192 C96 160.98 96 129.96 96 98 C64.98 98 33.96 98 2 98 Z M98 98 C98 129.02 98 160.04 98 192 C129.02 192 160.04 192 192 192 C192 160.98 192 129.96 192 98 C160.98 98 129.96 98 98 98 Z M194 98 C194 129.02 194 160.04 194 192 C225.02 192 256.04 192 288 192 C288 160.98 288 129.96 288 98 C256.98 98 225.96 98 194 98 Z M290 98 C290 129.02 290 160.04 290 192 C321.02 192 352.04 192 384 192 C384 160.98 384 129.96 384 98 C352.98 98 321.96 98 290 98 Z M-94 194 C-94 225.02 -94 256.04 -94 288 C-62.98 288 -31.96 288 0 288 C0 256.98 0 225.96 0 194 C-31.02 194 -62.04 194 -94 194 Z M2 194 C2 225.02 2 256.04 2 288 C33.02 288 64.04 288 96 288 C96 256.98 96 225.96 96 194 C64.98 194 33.96 194 2 194 Z M98 194 C98 225.02 98 256.04 98 288 C129.02 288 160.04 288 192 288 C192 256.98 192 225.96 192 194 C160.98 194 129.96 194 98 194 Z M194 194 C194 225.02 194 256.04 194 288 C225.02 288 256.04 288 288 288 C288 256.98 288 225.96 288 194 C256.98 194 225.96 194 194 194 Z M290 194 C290 225.02 290 256.04 290 288 C321.02 288 352.04 288 384 288 C384 256.98 384 225.96 384 194 C352.98 194 321.96 194 290 194 Z " fill="#C0E0FD" transform="translate(767,383)"/>
<path d="M0 0 C0.33 0 0.66 0 1 0 C1 31.02 1 62.04 1 94 C33.01 94 65.02 94 98 94 C98.09401248 158.0224989 97.77246079 221.98231234 97 286 C129.01 286 161.02 286 194 286 C194.1209091 334.31885991 194.1209091 334.31885991 194.14648438 354.5078125 C194.16431165 368.46878348 194.18531186 382.42970029 194.22631836 396.390625 C194.25616396 406.55657128 194.27556148 416.72247379 194.28226548 426.88846266 C194.28618597 432.27427247 194.29543801 437.65995701 194.31719017 443.04572678 C194.33747896 448.10996676 194.34384929 453.17402928 194.33932304 458.23830605 C194.34015167 460.101592 194.34616243 461.9648836 194.35761642 463.82813454 C194.37244177 466.36313275 194.36899051 468.89745218 194.36076355 471.4324646 C194.36950207 472.17759194 194.3782406 472.92271928 194.38724393 473.69042623 C194.36914349 475.73975182 194.36914349 475.73975182 194 479 C190.02402088 481.65065275 186.63745753 481.22302881 182.03051758 481.13525391 C180.65460701 481.12106163 180.65460701 481.12106163 179.25090027 481.10658264 C176.21524261 481.07287143 173.17999056 481.02476509 170.14453125 480.9765625 C168.04132654 480.95039885 165.9381105 480.92513156 163.83488464 480.90072632 C158.29616984 480.83404143 152.7576929 480.75515579 147.21917725 480.67376709 C141.56873716 480.5928802 135.91815743 480.52347942 130.26757812 480.453125 C119.17821802 480.31335348 108.08907521 480.1606981 97 480 C97.01918991 481.18572601 97.03837982 482.37145203 97.05815125 483.59310913 C97.2367047 494.74712901 97.39945588 505.9012814 97.54658794 517.05576134 C97.62274887 522.79091 97.70454859 528.52586445 97.79907227 534.26074219 C97.89002443 539.79135477 97.96637734 545.32199103 98.03244972 550.85295486 C98.06030118 552.96702259 98.09348501 555.08102677 98.13199425 557.19492722 C98.18488396 560.14737844 98.21910297 563.09948342 98.2487793 566.05224609 C98.27898415 567.37394051 98.27898415 567.37394051 98.30979919 568.72233582 C98.32279968 571.15292358 98.32279968 571.15292358 98 575 C94.32520282 577.44986479 91.58638379 577.27521717 87.33862305 577.24291992 C86.55097565 577.24479561 85.76332825 577.2466713 84.95181274 577.24860382 C82.30501918 577.25228722 79.65848928 577.2414428 77.01171875 577.23046875 C75.11888142 577.22961005 73.22604359 577.22953194 71.33320618 577.23017883 C66.190025 577.22901647 61.04695767 577.2145602 55.90380859 577.19723511 C51.61984099 577.18426841 47.3358754 577.17869885 43.05189323 577.17279625 C-2.96790172 577.10450357 -48.98444489 576.59772941 -95 576 C-95 575.34 -95 574.68 -95 574 C-63.98 574 -32.96 574 -1 574 C-1 542.98 -1 511.96 -1 480 C-0.34 480 0.32 480 1 480 C1 479.34 1 478.68 1 478 C32.02 478 63.04 478 95 478 C95 446.98 95 415.96 95 384 C63.98 384 32.96 384 1 384 C1 383.34 1 382.68 1 382 C32.02 382 63.04 382 95 382 C95 350.98 95 319.96 95 288 C63.98 288 32.96 288 1 288 C1 287.34 1 286.68 1 286 C32.02 286 63.04 286 95 286 C95 254.98 95 223.96 95 192 C63.98 192 32.96 192 1 192 C1 191.34 1 190.68 1 190 C0.34 190 -0.32 190 -1 190 C-1 158.98 -1 127.96 -1 96 C-32.02 96 -63.04 96 -95 96 C-95 95.34 -95 94.68 -95 94 C-63.98 94 -32.96 94 -1 94 C-1.03961717 63.43858988 -1.03961717 63.43858988 -1.09008789 32.87719727 C-1.09460449 26.97839355 -1.09460449 26.97839355 -1.09544373 24.2205658 C-1.09698351 22.28644074 -1.10050913 20.35231667 -1.10557556 18.41819763 C-1.1128512 15.4956596 -1.11390748 12.57318044 -1.11352539 9.65063477 C-1.1171235 8.78297517 -1.12072161 7.91531557 -1.12442875 7.02136326 C-1.11402634 1.11402634 -1.11402634 1.11402634 0 0 Z M1 96 C1 127.02 1 158.04 1 190 C32.02 190 63.04 190 95 190 C95 158.98 95 127.96 95 96 C63.98 96 32.96 96 1 96 Z M97 288 C97 319.02 97 350.04 97 382 C128.02 382 159.04 382 191 382 C191 350.98 191 319.96 191 288 C159.98 288 128.96 288 97 288 Z M97 384 C97 415.02 97 446.04 97 478 C128.02 478 159.04 478 191 478 C191 446.98 191 415.96 191 384 C159.98 384 128.96 384 97 384 Z M1 480 C1 511.02 1 542.04 1 574 C32.02 574 63.04 574 95 574 C95 542.98 95 511.96 95 480 C63.98 480 32.96 480 1 480 Z " fill="#EAF4FE" transform="translate(1536,193)"/>
<path d="M0 0 C64.35 0 128.7 0 195 0 C194.67 31.68 194.34 63.36 194 96 C193.34 96 192.68 96 192 96 C192 64.98 192 33.96 192 2 C160.98 2 129.96 2 98 2 C98 33.02 98 64.04 98 96 C97.34 96 96.68 96 96 96 C96 64.98 96 33.96 96 2 C64.98 2 33.96 2 2 2 C2 33.02 2 64.04 2 96 C1.34 96 0.68 96 0 96 C0 64.32 0 32.64 0 0 Z " fill="#EDF6FE" transform="translate(863,95)"/>
</svg>
